<svg width="48" height="48" version="1.1" viewBox="0 0 48 48" xmlns="http://www.w3.org/2000/svg">
 <g transform="matrix(.092777 0 0 .093687 .0013164 .11779)">
  <rect x="2.4976" y="1.2549" width="511.98" height="506.98" fill="#fff" stroke="#b41019" stroke-width="5.0244"/>
  <text font-family="sans-serif" font-size="32px" style="line-height:1.25;shape-inside:url(#rect3162);white-space:pre" xml:space="preserve"/>
  <g fill="#800000">
   <text x="30.316675" y="202.14835" font-family="sans-serif" font-size="168px" stroke-width=".875" style="line-height:1.25" xml:space="preserve"><tspan x="30.316675" y="202.14835" fill="#800000" font-size="168px" stroke-width=".875">RC</tspan></text>
   <g stroke="#b41019" stroke-width="9.6">
    <path d="m228.04 432.47c-1.2827 2.3401-48.433 22.864-50.846 24.003-2.4132 1.1392-48.224 24.5-50.846 24.003-2.6219-0.4968-36.711-38.997-38.541-40.94-1.8292-1.943-38.203-38.293-38.541-40.94s25.744-46.965 27.027-49.305c1.2827-2.3401 24.614-48.166 27.027-49.305 2.4132-1.1392 52.622 9.9709 55.244 10.468 2.6219 0.49681 53.415 8.5246 55.244 10.468 1.8292 1.943 6.7782 53.128 7.116 55.775 0.33773 2.6471 8.3987 53.435 7.116 55.775z"/>
    <path d="m440.83 263.14c-2.8182 1.492-51.312-38.885-54.469-39.335-3.1569-0.44945-60.992 24.79-63.282 22.571-2.2898-2.2192 21.126-60.816 20.578-63.958-0.54808-3.1413-42.424-50.347-41.021-53.21 1.403-2.8635 64.368 1.2985 67.186-0.19345 2.8182-1.492 34.773-55.906 37.93-55.456 3.1569 0.44944 18.656 61.619 20.946 63.838 2.2898 2.2192 63.915 15.795 64.463 18.936s-52.838 36.784-54.241 39.648c-1.403 2.8635 4.7288 65.667 1.9106 67.159z"/>
    <circle cx="373.44" cy="373.44" r="59.029"/>
   </g>
  </g>
 </g>
</svg>
